Coordinates
version=1
nRows=12
nColumns=46
inDegrees=yes

Units are S.I. units (second, meters, Newtons, ...)
Angles are in degrees.

endheader
time	pelvis_tilt	pelvis_list	pelvis_rotation	pelvis_tx	pelvis_ty	pelvis_tz	bb_angle	bb_tx	bb_ty	bb_tz	hip_flexion_r	hip_adduction_r	hip_rotation_r	knee_angle_r	knee_angle_r_beta	ankle_angle_r	subtalar_angle_r	mtp_angle_r	crank_angle_r	hip_flexion_l	hip_adduction_l	hip_rotation_l	knee_angle_l	knee_angle_l_beta	ankle_angle_l	subtalar_angle_l	mtp_angle_l	crank_angle_l	lumbar_extension	lumbar_bending	lumbar_rotation	arm_flex_r	arm_add_r	arm_rot_r	elbow_flex_r	pro_sup_r	wrist_flex_r	wrist_dev_r	arm_flex_l	arm_add_l	arm_rot_l	elbow_flex_l	pro_sup_l	wrist_flex_l	wrist_dev_l
      2.50500000	    -21.01538686	     -2.62007332	    -15.33044060	      0.31851795	      1.07826375	     -0.23241886	      0.00000000	      0.50000000	      0.00000000	      0.25000000	     75.63323280	     12.10344525	      7.39038705	    107.33977218	      1.87343244	     29.52511544	     -4.61808072	      0.00000000	      0.00000000	     25.54563517	    -13.46626247	    -13.47377148	     27.54003211	      0.48066424	    -14.37783861	     -4.18539816	      0.00000000	      0.00000000	    -54.65384098	     10.80137264	      3.85058515	     70.01003322	      4.29905841	     38.38873758	     54.32035740	     46.16311081	      0.00000000	      0.00000000	     38.89717375	    -11.28887614	     -5.81404653	     62.89583496	     44.36091307	      0.00000000	      0.00000000
      2.51000000	    -21.10951738	     -2.52670368	    -15.52495598	      0.31884930	      1.07883875	     -0.23236089	      0.00000000	      0.50000000	      0.00000000	      0.25000000	     75.67238647	     12.20023788	      7.40408571	    106.81688688	      1.86430637	     29.53322545	     -4.75707541	      0.00000000	      0.00000000	     25.65654049	    -13.44144784	    -13.41997745	     27.91165192	      0.48715023	    -14.68541256	     -4.54630441	      0.00000000	      0.00000000	    -54.71581249	     10.74242819	      3.83970024	     70.26336687	      4.27368405	     38.98586796	     54.13365542	     46.27026567	      0.00000000	      0.00000000	     39.49046705	    -10.90957918	     -6.30032285	     62.14097260	     44.27230039	      0.00000000	      0.00000000
      2.51500000	    -21.09360363	     -2.38203831	    -15.76754402	      0.31924745	      1.07958958	     -0.23223341	      0.00000000	      0.50000000	      0.00000000	      0.25000000	     75.57220487	     12.34140271	      7.56561047	    106.28077099	      1.85494939	     29.54130896	     -4.88540030	      0.00000000	      0.00000000	     25.61096178	    -13.36252326	    -13.47546585	     28.21507066	      0.49244588	    -15.03982370	     -4.83682713	      0.00000000	      0.00000000	    -54.90120030	     10.52835000	      3.93560181	     70.26629932	      4.15794993	     39.03852104	     54.47178451	     46.20557176	      0.00000000	      0.00000000	     40.15102232	    -10.50853905	     -6.58070291	     61.50653573	     44.13266458	      0.00000000	      0.00000000
      2.52000000	    -21.08611264	     -2.24687147	    -16.01654979	      0.31963250	      1.08029892	     -0.23204542	      0.00000000	      0.50000000	      0.00000000	      0.25000000	     75.47498401	     12.49709580	      7.70303328	    105.74951884	      1.84567729	     29.54875599	     -5.07010367	      0.00000000	      0.00000000	     25.59654981	    -13.32610405	    -13.60747661	     28.58523174	      0.49890641	    -15.28123924	     -4.99076518	      0.00000000	      0.00000000	    -55.08601420	     10.30179028	      3.99817002	     70.15377899	      4.15462141	     38.80345914	     54.90333337	     46.14441258	      0.00000000	      0.00000000	     40.68007246	    -10.14272473	     -7.04191110	     61.09607047	     43.99787181	      0.00000000	      0.00000000
      2.52500000	    -21.16006631	     -2.17313208	    -16.19766474	      0.31998880	      1.08092160	     -0.23196897	      0.00000000	      0.50000000	      0.00000000	      0.25000000	     75.42433755	     12.61493717	      7.76013790	    105.17212074	      1.83559979	     29.55982744	     -5.22251310	      0.00000000	      0.00000000	     25.71745582	    -13.34661479	    -13.62715122	     29.00575517	      0.50624593	    -15.63318957	     -5.29083139	      0.00000000	      0.00000000	    -55.21211208	     10.23389147	      4.01104061	     70.35133068	      4.12568044	     39.19164695	     54.89152327	     46.09002603	      0.00000000	      0.00000000	     40.96439256	     -9.77615259	     -7.64729493	     60.92527308	     43.95587419	      0.00000000	      0.00000000
      2.53000000	    -21.35551664	     -2.05014040	    -16.52902578	      0.32054323	      1.08135232	     -0.23163716	      0.00000000	      0.50000000	      0.00000000	      0.25000000	     75.49645466	     12.88027068	      7.88200204	    104.58687814	      1.82538538	     29.56814147	     -5.34146066	      0.00000000	      0.00000000	     25.93201586	    -13.44453436	    -13.86214899	     29.47010955	      0.51435044	    -15.92626876	     -5.47110601	      0.00000000	      0.00000000	    -55.19238270	     10.02521549	      4.07005901	     70.27782371	      4.12578289	     39.29785233	     55.13251451	     46.19688104	      0.00000000	      0.00000000	     40.91931442	     -9.36208967	     -8.43062284	     61.11469785	     44.00201820	      0.00000000	      0.00000000
      2.53500000	    -21.38265377	     -1.79656574	    -16.82694274	      0.32105923	      1.08197707	     -0.23145346	      0.00000000	      0.50000000	      0.00000000	      0.25000000	     75.41930153	     13.02129140	      8.14460633	    104.03308323	      1.81571983	     29.58928364	     -5.48175925	      0.00000000	      0.00000000	     25.97659436	    -13.33128717	    -14.13747094	     29.83844592	      0.52077912	    -16.42608501	     -5.75420949	      0.00000000	      0.00000000	    -55.30892271	      9.63805047	      4.24510396	     69.62251581	      4.05733144	     37.90906053	     56.35207359	     46.16923785	      0.00000000	      0.00000000	     41.21133416	     -8.83964304	     -8.85553001	     61.00978537	     43.88851952	      0.00000000	      0.00000000
      2.54000000	    -21.61816719	     -1.82065833	    -17.13966901	      0.32151411	      1.08238073	     -0.23106685	      0.00000000	      0.50000000	      0.00000000	      0.25000000	     75.46823641	     13.35446794	      8.12364400	    103.37274990	      1.80419484	     29.58613074	     -5.75279553	      0.00000000	      0.00000000	     26.30479312	    -13.65906153	    -14.40278902	     30.52226219	      0.53271397	    -16.48976746	     -5.70833689	      0.00000000	      0.00000000	    -55.29105852	      9.62144339	      4.29941928	     70.13462623	      3.96656530	     39.36239705	     55.80407220	     46.28323524	      0.00000000	      0.00000000	     41.11568606	     -8.48248329	     -9.82915257	     60.98290361	     43.88027455	      0.00000000	      0.00000000
      2.54500000	    -21.68441802	     -1.73614876	    -17.36858215	      0.32190229	      1.08298694	     -0.23091415	      0.00000000	      0.50000000	      0.00000000	      0.25000000	     75.36148965	     13.53383599	      8.22693200	    102.72860285	      1.79295236	     29.59788287	     -6.07027205	      0.00000000	      0.00000000	     26.48322145	    -13.75760445	    -14.58670026	     31.10470153	      0.54287945	    -16.76216924	     -5.74543773	      0.00000000	      0.00000000	    -55.42242313	      9.49318886	      4.34898926	     70.09061777	      3.97809942	     39.36517996	     56.10142528	     46.32907110	      0.00000000	      0.00000000	     41.05343727	     -8.06526770	    -10.33553118	     61.09174126	     43.90127093	      0.00000000	      0.00000000
      2.55000000	    -21.72519042	     -1.56618424	    -17.64958582	      0.32231936	      1.08357215	     -0.23065007	      0.00000000	      0.50000000	      0.00000000	      0.25000000	     75.24770308	     13.71132712	      8.43446629	    102.11374014	      1.78222098	     29.60938710	     -6.17812660	      0.00000000	      0.00000000	     26.60292588	    -13.78849963	    -14.85458640	     31.61854768	      0.55184776	    -17.12604070	     -5.96959529	      0.00000000	      0.00000000	    -55.57138185	      9.17686864	      4.58179960	     69.61786988	      3.92192680	     38.08088614	     57.20576860	     46.26456172	      0.00000000	      0.00000000	     41.23266455	     -7.53126270	    -10.92901628	     61.02368376	     43.78895857	      0.00000000	      0.00000000
      2.55500000	    -21.93399677	     -1.53075237	    -17.87019379	      0.32266012	      1.08401758	     -0.23057794	      0.00000000	      0.50000000	      0.00000000	      0.25000000	     75.25080173	     13.86549317	      8.40369822	    101.37919286	      1.76940071	     29.61199756	     -6.47297620	      0.00000000	      0.00000000	     27.01237529	    -13.99611038	    -14.96637397	     32.38284262	      0.56518722	    -17.28712376	     -6.06736367	      0.00000000	      0.00000000	    -55.59191531	      9.21010268	      4.39372182	     70.32854757	      3.95887333	     39.90274957	     56.41622710	     46.43158786	      0.00000000	      0.00000000	     40.86213707	     -7.30682627	    -11.96958797	     61.23932920	     43.87125917	      0.00000000	      0.00000000
      2.56000000	    -22.03263937	     -1.44804449	    -18.12909102	      0.32301364	      1.08455954	     -0.23037322	      0.00000000	      0.50000000	      0.00000000	      0.25000000	     75.15369197	     14.05493655	      8.47416516	    100.72356468	      1.75795784	     29.62057145	     -6.67326266	      0.00000000	      0.00000000	     27.26787049	    -14.15164188	    -15.18284186	     33.05486029	      0.57691615	    -17.54786638	     -6.12097961	      0.00000000	      0.00000000	    -55.70622396	      9.05374682	      4.44886990	     70.38963519	      3.95009723	     40.01011558	     56.59994948	     46.49227907	      0.00000000	      0.00000000	     40.80614206	     -6.93764699	    -12.64982461	     61.26044681	     43.88870176	      0.00000000	      0.00000000
